<svg xmlns="http://www.w3.org/2000/svg" width="16.614" height="16.549" viewBox="0 0 16.614 16.549">
  <g id="Facebook" transform="translate(0)">
    <path id="Path_4" data-name="Path 4" d="M101.494,51.479h.414c.02.02.045.011.068.012a7.717,7.717,0,0,1,1.561.2,8.231,8.231,0,0,1,5.091,3.525,8.007,8.007,0,0,1,1.222,2.986,7.084,7.084,0,0,1,.139,1.193c0,.236,0,.473,0,.709-.009.111-.007.223-.016.334a8.091,8.091,0,0,1-.221,1.366A8.3,8.3,0,0,1,102.8,68.02c-.114.015-.093.008-.093-.086q0-2.754,0-5.507c0-.019,0-.037,0-.056s.012-.044.042-.043h2.1c.021,0,.042,0,.064,0s.047-.015.052-.045.015-.078.022-.117l.38-2.066c.019-.1.036-.2.054-.3a.211.211,0,0,0-.1-.01h-2.534c-.08,0-.076,0-.076-.072,0-.316,0-.632,0-.948a2.793,2.793,0,0,1,.093-.7,1.236,1.236,0,0,1,.85-.9,2.456,2.456,0,0,1,.506-.1,7.3,7.3,0,0,1,.812-.018c.181,0,.361.011.541.023.03,0,.046,0,.045-.036,0-.013,0-.027,0-.04q0-1.072,0-2.144c0-.079,0-.079-.079-.1a6.7,6.7,0,0,0-.754-.121,8.91,8.91,0,0,0-.961-.066,7.141,7.141,0,0,0-.819.042,4.76,4.76,0,0,0-1.1.242,2.988,2.988,0,0,0-1.225.792,3.115,3.115,0,0,0-.634,1.086,5.5,5.5,0,0,0-.284,1.713c-.01.427,0,.855-.005,1.283,0,.069,0,.069-.07.07H98.069c-.086,0-.086-.012-.086.086v2.351c0,.019,0,.037,0,.056,0,.038.015.053.052.05.019,0,.037,0,.056,0h1.491c.021,0,.042,0,.064,0,.039,0,.052.016.048.052,0,.013,0,.027,0,.04q0,2.67,0,5.339a.168.168,0,0,1-.007.079.215.215,0,0,1-.078-.013,8.322,8.322,0,0,1-5.786-5.412,8.011,8.011,0,0,1-.379-1.771c-.014-.142-.024-.285-.036-.428a.762.762,0,0,0-.024-.223v-.414a.648.648,0,0,0,.027-.217,8.29,8.29,0,0,1,.1-.91,8.051,8.051,0,0,1,.819-2.475,8.264,8.264,0,0,1,3.693-3.628A8.047,8.047,0,0,1,100.3,51.6a8.155,8.155,0,0,1,1.124-.113c.023,0,.048.007.068-.012" transform="translate(-93.381 -51.479)" fill="#fff"/>
  </g>
</svg>
