<svg id="Instagram_Icon" data-name="Instagram Icon" xmlns="http://www.w3.org/2000/svg" width="15.507" height="15.494" viewBox="0 0 15.507 15.494">
  <path id="Path_673" data-name="Path 673" d="M97.469,230.127H104.8a.826.826,0,0,0,.358.066A4.19,4.19,0,0,1,108.127,232a4.692,4.692,0,0,1,.77,2.746q0,2.246,0,4.492c0,.674.007,1.348-.008,2.021a4.386,4.386,0,0,1-1,2.839,4.284,4.284,0,0,1-3.371,1.507c-2.153.023-4.307.007-6.461.008-.242,0-.483-.009-.724-.033a4.231,4.231,0,0,1-3.85-3.624,2.585,2.585,0,0,0-.095-.6v-.173c.053-.032.026-.083.026-.124q0-3.212,0-6.423c0-.041.027-.093-.027-.124v-.138a2.849,2.849,0,0,0,.1-.617,4.117,4.117,0,0,1,3.318-3.508,4.183,4.183,0,0,0,.665-.128m3.684,14.06c.979,0,1.958,0,2.937,0a6.56,6.56,0,0,0,.707-.028,2.848,2.848,0,0,0,2.4-1.588,3.373,3.373,0,0,0,.323-1.539q0-3.084,0-6.168a4.679,4.679,0,0,0-.033-.672,2.87,2.87,0,0,0-1.3-2.156,3.129,3.129,0,0,0-1.693-.456q-3.282-.006-6.565,0a3.86,3.86,0,0,0-.551.038,2.694,2.694,0,0,0-2.252,1.6,3.615,3.615,0,0,0-.283,1.5q0,3.153,0,6.306a4.38,4.38,0,0,0,.065.791,2.645,2.645,0,0,0,1.758,2.162,3.789,3.789,0,0,0,1.321.217q1.581,0,3.161,0" transform="translate(-93.391 -230.127)" fill="#fff"/>
  <path id="Path_676" data-name="Path 676" d="M113.995,246.6a3.993,3.993,0,1,1-3.986-3.992,4,4,0,0,1,3.986,3.992M110,249.16a2.559,2.559,0,1,0-2.556-2.556A2.571,2.571,0,0,0,110,249.16" transform="translate(-102.24 -238.883)" fill="#fff"/>
  <path id="Path_677" data-name="Path 677" d="M131.148,241.069a.9.9,0,0,1,.03-1.8.9.9,0,1,1-.03,1.8" transform="translate(-119.248 -236.535)" fill="#fff"/>
</svg>
