<svg id="Group_315" data-name="Group 315" xmlns="http://www.w3.org/2000/svg" xmlns:xlink="http://www.w3.org/1999/xlink" width="179.921" height="41.093" viewBox="0 0 179.921 41.093">
  <defs>
    <clipPath id="clip-path">
      <rect id="Rectangle_316" data-name="Rectangle 316" width="179.921" height="41.093" fill="#fff"/>
    </clipPath>
  </defs>
  <g id="Group_314" data-name="Group 314" clip-path="url(#clip-path)">
    <path id="Path_713" data-name="Path 713" d="M56.565,119.328c-.013-.131-.036-.262-.037-.394,0-1.633,0-3.266-.006-4.9a1.2,1.2,0,0,1,.379-.906l12.445-12.415c.458-.457.581-.457,1.037,0q3.537,3.525,7.08,7.045A1.635,1.635,0,0,1,78,109.037c-.025,1.535,0,3.072.006,4.607,0,.157.085.37-.125.449-.191.072-.3-.1-.422-.221q-3.664-3.656-7.321-7.318c-.2-.2-.31-.246-.528-.013-.554.592-1.131,1.164-1.722,1.719-.212.2-.169.293.012.472,1.472,1.456,2.93,2.926,4.4,4.381a1.331,1.331,0,0,1,.428,1.029c-.018,1.728-.014,3.457-.018,5.186h-.291q-3.8-3.8-7.587-7.614c-.219-.221-.306-.09-.448.052q-3.63,3.637-7.264,7.271c-.092.093-.176.194-.264.291Z" transform="translate(-44.057 -78.235)" fill="#fff"/>
    <path id="Path_714" data-name="Path 714" d="M772.1,72.31c-.144-.009-.288-.025-.433-.025q-5.761,0-11.522.006c-.309,0-.408-.061-.407-.393q.018-7.711,0-15.423c0-.306.087-.377.384-.376q5.761.015,11.522,0c.289,0,.368.079.362.363q-.027,1.233,0,2.467c.007.291-.083.365-.368.364-2.641-.01-5.283,0-7.924-.013-.306,0-.422.056-.41.393.028.822.022,1.645,0,2.467-.008.3.07.386.376.384,2.29-.013,4.58,0,6.87-.014.311,0,.417.06.406.392-.027.822-.023,1.645,0,2.467.008.3-.094.354-.368.353-2.29-.01-4.58,0-6.87-.015-.347,0-.421.105-.413.427.021.883.01,1.766,0,2.649,0,.183.023.29.25.289q4.234-.011,8.469-.009a.258.258,0,0,0,.069-.021Z" transform="translate(-592.177 -43.726)" fill="#fff"/>
    <path id="Path_715" data-name="Path 715" d="M656.927,66.639q.419-1.36.838-2.72,1.183-3.861,2.359-7.723a.367.367,0,0,1,.425-.319c1.03.017,2.06.013,3.09,0,.25,0,.343.021.244.31q-2.676,7.849-5.33,15.705a.334.334,0,0,1-.383.273c-.848-.013-1.7-.016-2.545,0a.354.354,0,0,1-.4-.3q-1.663-4.846-3.343-9.687c-.054-.157-.112-.314-.2-.547-.316.912-.609,1.753-.9,2.6-.875,2.533-1.753,5.064-2.617,7.6a.417.417,0,0,1-.488.335c-.824-.021-1.648-.015-2.472,0a.334.334,0,0,1-.383-.27q-2.028-6-4.068-12c-.411-1.211-.818-2.424-1.241-3.631-.1-.286-.092-.394.263-.386q1.544.033,3.09,0c.309-.007.412.109.493.379q1.534,5.059,3.09,10.111c.03.1.02.222.156.312l1.2-3.621q1.153-3.49,2.3-6.981a.31.31,0,0,1,.359-.255c.812.012,1.624.022,2.436,0,.3-.01.411.1.5.37q1.661,5.076,3.345,10.144c.034.1.07.2.105.307l.076,0" transform="translate(-498.428 -43.505)" fill="#fff"/>
    <path id="Path_716" data-name="Path 716" d="M32.272,8.069c0-.786,0-1.573,0-2.359,0-.162-.078-.376.1-.466.2-.1.326.1.451.221q3.651,3.643,7.3,7.294c.232.234.356.24.582,0,.547-.582,1.117-1.144,1.7-1.694.185-.176.18-.263,0-.44-1.465-1.446-2.912-2.91-4.379-4.353a1.5,1.5,0,0,1-.487-1.157c.012-1.561,0-3.121.006-4.682,0-.151-.049-.348.138-.414.168-.059.286.086.4.2l5.8,5.809c.5.505,1.024,1,1.5,1.528.234.26.351.188.556-.019q3.6-3.619,7.214-7.22c.136-.136.252-.4.492-.289.216.1.116.346.117.528.007,1.536,0,3.073.009,4.609a1.432,1.432,0,0,1-.447,1.1q-6.2,6.177-12.393,12.366c-.447.446-.573.447-1.012.01q-3.552-3.537-7.107-7.07a1.6,1.6,0,0,1-.533-1.285c.033-.737.008-1.476.008-2.214h-.011" transform="translate(-25.144 0)" fill="#fff"/>
    <path id="Path_717" data-name="Path 717" d="M116.7,53.96c-.812,0-1.624-.01-2.436,0a1.194,1.194,0,0,1-.906-.382l-12.408-12.4c-.474-.474-.475-.6-.009-1.061q3.586-3.58,7.169-7.164a1.351,1.351,0,0,1,1.031-.43c1.587.013,3.175,0,4.763.009.146,0,.346-.085.426.1s-.088.3-.207.423q-3.676,3.67-7.356,7.336c-.195.193-.22.3-.007.5.59.557,1.163,1.132,1.723,1.719.186.2.282.2.476,0,1.447-1.464,2.913-2.909,4.361-4.372a1.421,1.421,0,0,1,1.1-.456c1.563.015,3.127,0,4.69.009.157,0,.376-.089.453.116s-.116.324-.241.449q-3.64,3.628-7.29,7.248c-.237.234-.2.339.011.552q3.629,3.588,7.239,7.195c.051.051.1.1.154.154.1.1.188.205.132.35s-.2.1-.318.1c-.848,0-1.7,0-2.545,0" transform="translate(-78.41 -25.343)" fill="#fff"/>
    <path id="Path_718" data-name="Path 718" d="M8.078,78Q6.824,78,5.57,78c-.121,0-.264.032-.321-.1s.028-.253.131-.349c.062-.058.12-.12.18-.18q3.612-3.606,7.23-7.205c.246-.243.215-.364-.013-.579-.572-.541-1.131-1.1-1.67-1.669-.2-.217-.308-.177-.494.012C9.164,69.383,7.7,70.83,6.251,72.293a1.441,1.441,0,0,1-1.1.46c-1.563-.009-3.126,0-4.69,0-.163,0-.377.059-.444-.145-.06-.181.105-.3.225-.423Q3.9,68.545,7.567,64.914c.209-.206.231-.309.009-.529q-3.643-3.6-7.263-7.223l-.2-.206a.257.257,0,0,1-.09-.292c.045-.1.151-.106.251-.106,1.745,0,3.49,0,5.235.007a1.121,1.121,0,0,1,.77.43q5.654,5.648,11.31,11.294c.377.376.756.751,1.131,1.129s.37.541,0,.909c-2.33,2.327-4.674,4.641-6.981,6.992a1.961,1.961,0,0,1-1.659.68c-.663-.048-1.332-.01-2-.01V78" transform="translate(0 -44.084)" fill="#fff"/>
    <path id="Path_719" data-name="Path 719" d="M361.364,65.87v-.395c0-3,0-6-.007-9,0-.306.083-.386.384-.38.945.019,1.891.015,2.836,0,.242,0,.331.046.33.312q-.012,7.787,0,15.574c0,.243-.071.307-.306.3q-1.236-.019-2.472,0a.5.5,0,0,1-.446-.236q-3.671-4.824-7.353-9.64c-.07-.091-.148-.176-.233-.277a.644.644,0,0,0-.056.41c0,3.11-.008,6.22.006,9.329,0,.343-.1.424-.427.417-.945-.021-1.891-.014-2.836,0-.221,0-.287-.06-.287-.285q.009-7.805,0-15.61c0-.208.033-.3.273-.295.933.015,1.867.017,2.8,0,.243,0,.341.13.459.285q3.508,4.606,7.019,9.211c.078.1.161.2.242.3l.074-.021" transform="translate(-273.195 -43.721)" fill="#fff"/>
    <path id="Path_720" data-name="Path 720" d="M497.933,64.155c0-2.565,0-5.13-.005-7.694,0-.271.049-.378.352-.371q1.453.031,2.908,0c.309-.007.352.109.351.375-.01,1.875,0,3.75-.013,5.626,0,.314.071.408.4.4q2.89-.025,5.78,0c.293,0,.362-.087.361-.367-.011-1.875,0-3.75-.015-5.626,0-.348.107-.418.427-.411.945.02,1.89.015,2.835,0,.257,0,.354.044.354.333q-.014,7.767,0,15.534c0,.258-.077.326-.328.323-.981-.013-1.963-.016-2.944,0-.284.005-.34-.1-.339-.356.01-1.936,0-3.872.012-5.807,0-.287-.078-.36-.361-.358q-2.908.019-5.817,0c-.284,0-.363.071-.362.358.013,1.924,0,3.847.013,5.771,0,.29-.06.4-.376.393-.957-.021-1.915-.018-2.872,0-.283,0-.367-.068-.365-.36.012-2.589.007-5.178.007-7.767" transform="translate(-388.109 -43.718)" fill="#fff"/>
    <path id="Path_721" data-name="Path 721" d="M584.216,71.819c-.5,0-.994-.014-1.49.006a.419.419,0,0,1-.477-.318c-.395-1.012-.821-2.011-1.219-3.022a.407.407,0,0,0-.452-.3q-3.09.017-6.18,0a.4.4,0,0,0-.45.3c-.4,1.023-.83,2.034-1.234,3.056a.383.383,0,0,1-.425.285c-.981-.013-1.963-.005-2.945-.005-.411,0-.412,0-.255-.37q2.342-5.5,4.686-11c.663-1.555,1.332-3.107,1.985-4.666a.38.38,0,0,1,.422-.282q1.363.021,2.726,0a.362.362,0,0,1,.394.269q3.342,7.866,6.7,15.724c.127.3.062.338-.226.328-.52-.019-1.042-.005-1.563-.005m-8.858-6.8h4.066c.234,0,.134-.132.091-.238q-.479-1.172-.96-2.344l-1.069-2.608-2.128,5.19" transform="translate(-443.501 -43.262)" fill="#fff"/>
    <path id="Path_722" data-name="Path 722" d="M280.833,71.821c-.521,0-1.042-.009-1.563,0a.357.357,0,0,1-.4-.27c-.4-1.022-.833-2.033-1.233-3.056a.432.432,0,0,0-.482-.315q-3.072.015-6.143,0a.431.431,0,0,0-.474.324c-.394,1-.813,1.989-1.2,2.989a.447.447,0,0,1-.505.331q-1.472-.028-2.944,0c-.309.005-.336-.062-.219-.337q2.886-6.742,5.755-13.491c.317-.744.642-1.485.946-2.234a.361.361,0,0,1,.4-.259q1.363.018,2.726,0a.382.382,0,0,1,.416.29q3.327,7.833,6.676,15.657c.119.279.14.4-.229.375-.507-.028-1.018-.007-1.526-.007m-8.875-6.8c1.165,0,2.277,0,3.39,0,.272,0,.667.124.785-.056s-.145-.5-.248-.751c-.583-1.436-1.176-2.867-1.8-4.377l-2.13,5.187" transform="translate(-207.024 -43.264)" fill="#fff"/>
    <path id="Path_723" data-name="Path 723" d="M434.244,71.637a10.379,10.379,0,0,1-6.6-2.347c-.22-.179-.278-.288-.062-.53.571-.642,1.119-1.305,1.653-1.977.181-.227.292-.26.532-.066a7.529,7.529,0,0,0,3.354,1.642,4.979,4.979,0,0,0,2.339-.04,1.419,1.419,0,0,0,1.141-1.736,1.317,1.317,0,0,0-.76-.871,12.041,12.041,0,0,0-2.605-.879,13.761,13.761,0,0,1-3.132-1.125,3.9,3.9,0,0,1-2.089-3.494,4.748,4.748,0,0,1,4.233-5.083,9.236,9.236,0,0,1,7.213,1.713c.2.147.259.247.092.477-.52.713-1.019,1.442-1.509,2.177-.141.211-.24.228-.451.086a7.81,7.81,0,0,0-3.39-1.4,3.469,3.469,0,0,0-1.648.142,1.315,1.315,0,0,0-.979,1.181,1.3,1.3,0,0,0,.816,1.331,12.456,12.456,0,0,0,2.441.8,17.342,17.342,0,0,1,2.612.868,4.145,4.145,0,0,1,2.767,4.111,4.58,4.58,0,0,1-2.948,4.461,6.414,6.414,0,0,1-1.353.4,8.631,8.631,0,0,1-1.662.15" transform="translate(-333.17 -42.858)" fill="#fff"/>
    <path id="Path_724" data-name="Path 724" d="M212.6,64.2c0-2.564,0-5.128-.006-7.693,0-.31.05-.429.4-.427q5.761.022,11.521,0c.3,0,.42.048.408.388-.029.846-.022,1.693,0,2.54.006.28-.084.341-.349.34-2.665-.009-5.331,0-8-.013-.326,0-.431.073-.421.413.026.87.022,1.742,0,2.612-.007.3.073.384.378.382,2.314-.013,4.628,0,6.942-.015.338,0,.424.09.414.419-.024.81-.022,1.621,0,2.431.008.317-.06.425-.406.422-2.314-.017-4.628,0-6.942-.016-.3,0-.387.069-.385.375.014,1.851,0,3.7.014,5.552,0,.291-.083.367-.367.363q-1.435-.024-2.871,0c-.274,0-.344-.074-.343-.345.01-2.576.006-5.153.006-7.729" transform="translate(-165.707 -43.715)" fill="#fff"/>
  </g>
</svg>
