<svg xmlns="http://www.w3.org/2000/svg" width="14.549" height="14.869" viewBox="0 0 14.549 14.869">
  <g id="X_Icon" data-name="X Icon" transform="translate(0)">
    <path id="Path_5" data-name="Path 5" d="M93.388,159.406c0-.017.012-.024.02-.033l1.83-2.127,3.732-4.337.007-.008c.026-.034.076-.062.076-.1s-.042-.072-.067-.107l-1.315-1.913-1.375-2-1.336-1.945-1.343-1.954-.225-.328-.01-.016h4.293a.064.064,0,0,1,.061.032q.943,1.374,1.887,2.747l1.544,2.247.279.406.025.033.206-.239,3.228-3.751,1.244-1.447a.072.072,0,0,1,.061-.028h1.241a.12.12,0,0,1-.033.046l-3.786,4.4q-.782.909-1.564,1.816a.046.046,0,0,0,0,.069q.809,1.174,1.616,2.35l1.781,2.59,1.817,2.644.641.933s0,.012.013.012,0,.008,0,.008h-4.331c-.007-.013-.015-.026-.023-.038l-.792-1.152-1.609-2.341q-.76-1.106-1.52-2.213c-.02-.029-.028-.023-.047,0L97.676,155.9l-2.9,3.372a.95.95,0,0,0-.107.131Zm12.783-.924-.024-.036L104.16,155.6l-3.449-4.931-3.593-5.14a.062.062,0,0,0-.059-.03H95.169c-.012,0-.025,0-.038.005l.021.031,2.4,3.432,3.019,4.317q1.8,2.58,3.608,5.161a.065.065,0,0,0,.062.032h1.931Z" transform="translate(-93.381 -144.537)" fill="#fff"/>
  </g>
</svg>
